<svg width="20" height="21" viewBox="0 0 20 21" fill="none" xmlns="http://www.w3.org/2000/svg">
<path d="M9.22422 11.2083C9.86589 10.05 11.0992 9.36667 11.8159 8.34167C12.5742 7.26667 12.1492 5.25833 9.99922 5.25833C8.59089 5.25833 7.89922 6.325 7.60755 7.20833L5.44922 6.3C6.04089 4.525 7.64922 3 9.99089 3C11.9492 3 13.2909 3.89167 13.9742 5.00833C14.5576 5.96667 14.8992 7.75833 13.9992 9.09167C12.9992 10.5667 12.0409 11.0167 11.5242 11.9667C11.3159 12.35 11.2326 12.6 11.2326 13.8333H8.82422C8.81589 13.1833 8.71589 12.125 9.22422 11.2083ZM11.6659 17.1667C11.6659 18.0833 10.9159 18.8333 9.99922 18.8333C9.08255 18.8333 8.33255 18.0833 8.33255 17.1667C8.33255 16.25 9.08255 15.5 9.99922 15.5C10.9159 15.5 11.6659 16.25 11.6659 17.1667Z" fill="#C9C9C9"/>
</svg>
