<svg width="20" height="20" viewBox="0 0 20 20" fill="none" xmlns="http://www.w3.org/2000/svg">
<path d="M10 1.66666C6.50001 1.66666 3.33334 4.34999 3.33334 8.49999C3.33334 11.15 5.37501 14.2667 9.45001 17.8583C9.76668 18.1333 10.2417 18.1333 10.5583 17.8583C14.625 14.2667 16.6667 11.15 16.6667 8.49999C16.6667 4.34999 13.5 1.66666 10 1.66666ZM10 9.99999C9.08334 9.99999 8.33334 9.24999 8.33334 8.33332C8.33334 7.41666 9.08334 6.66666 10 6.66666C10.9167 6.66666 11.6667 7.41666 11.6667 8.33332C11.6667 9.24999 10.9167 9.99999 10 9.99999Z" fill="#9E9E9E"/>
</svg>
